<svg width="52" height="52" xmlns="http://www.w3.org/2000/svg" xmlns:xlink="http://www.w3.org/1999/xlink"><defs><path d="M52 8.557v34.886A8.557 8.557 0 0143.443 52H8.557A8.557 8.557 0 010 43.443V8.557A8.557 8.557 0 018.557 0h34.886A8.557 8.557 0 0152 8.557z" id="a"/><path id="b" d="M.044.03h31.064V31.2H.044z"/></defs><g fill="none" fill-rule="evenodd"><use fill="#3CF" xlink:href="#a"/><path d="M27.543 36.937l-3.173-.002a3.88 3.88 0 00-3.8-3.126 3.845 3.845 0 00-3.27 1.78l-.001.025a12.206 12.206 0 01-3.137-2.324c-1.093-1.109-1.687-2.123-1.959-2.764a3.79 3.79 0 001.86-1.084 3.898 3.898 0 001.036-2.663v-2.317c0-2.76.916-5.456 2.607-7.632 2.417-3.11 5.994-4.85 9.837-4.85 3.308 0 6.425 1.298 8.774 3.657a12.404 12.404 0 013.644 8.808c0 3.33-1.291 6.46-3.637 8.815-2.291 2.3-5.435 3.677-8.78 3.677" fill="#FFF"/><g transform="translate(10.4 10.4)"><mask id="c" fill="#fff"><use xlink:href="#b"/></mask><path d="M17.143 26.537l-3.173-.002a3.88 3.88 0 00-3.8-3.126 3.845 3.845 0 00-3.27 1.78l-.001.025a12.206 12.206 0 01-3.137-2.324c-1.093-1.109-1.687-2.123-1.959-2.764a3.79 3.79 0 001.86-1.084 3.898 3.898 0 001.036-2.663v-2.317c0-2.76.916-5.456 2.607-7.632 2.417-3.11 5.994-4.85 9.837-4.85 3.308 0 6.425 1.298 8.774 3.657a12.404 12.404 0 013.644 8.808c0 3.33-1.291 6.46-3.637 8.815-2.291 2.3-5.435 3.677-8.78 3.677m13.964-12.492a13.95 13.95 0 00-4.096-9.904C24.371 1.49 20.867.03 17.146.03 12.88.03 8.904 1.938 6.19 5.353a14.006 14.006 0 00-3.03 8.706v2.325c0 1.184-.93 2.35-2.501 2.352a.598.598 0 00-.57.425c-.292.972.892 3.116 2.57 4.819a13.639 13.639 0 003.673 2.66 3.89 3.89 0 003.826 4.56 3.865 3.865 0 003.81-3.116l3.258.002c.434 2.202 2.715 3.711 5.155 2.884a3.699 3.699 0 002.285-2.253c.364-1.016.313-2.002-.018-2.846a14.089 14.089 0 002.372-1.916 13.95 13.95 0 004.089-9.91" fill="#000" mask="url(#c)"/></g><path d="M35.3 21.336c0-.86-.695-1.558-1.552-1.558-.857 0-1.553.697-1.553 1.558 0 .86.696 1.559 1.553 1.559s1.553-.698 1.553-1.559m-9.323 0c0-.86-.695-1.558-1.553-1.558-.857 0-1.553.697-1.553 1.558 0 .86.696 1.559 1.553 1.559.858 0 1.553-.698 1.553-1.559M24.9 26.44a.781.781 0 00-.708-.442.774.774 0 00-.703 1.1 6.21 6.21 0 005.62 3.576 6.21 6.21 0 005.62-3.576.774.774 0 00-.704-1.1h-.02a.763.763 0 00-.687.443 4.663 4.663 0 01-4.21 2.675A4.663 4.663 0 0124.9 26.44" fill="#000"/></g></svg>